<svg id="svg" version="1.1" xmlns="http://www.w3.org/2000/svg" xmlns:xlink="http://www.w3.org/1999/xlink" width="400" height="432.0610687022901" viewBox="0, 0, 400,432.0610687022901"><g id="svgg"><path id="path0" d="M71.869 23.865 C 71.721 24.012,71.600 41.193,71.600 62.044 L 71.600 99.955 72.489 100.577 C 73.904 101.568,77.892 101.423,78.762 100.348 L 79.451 99.496 111.426 99.448 C 129.012 99.422,148.035 99.551,153.700 99.736 C 159.365 99.921,164.000 99.921,164.000 99.736 C 164.001 99.551,161.976 99.400,159.500 99.400 L 155.000 99.400 154.800 61.600 L 154.600 23.800 113.369 23.698 C 90.691 23.642,72.016 23.717,71.869 23.865 M231.443 24.233 C 230.705 26.155,231.199 41.475,232.022 42.220 C 233.202 43.288,233.088 85.092,231.900 86.904 C 231.309 87.805,231.200 88.942,231.200 94.196 L 231.200 100.420 232.226 100.810 C 234.235 101.574,237.594 101.296,238.401 100.300 L 239.129 99.400 276.465 99.363 L 313.800 99.327 313.902 61.463 L 314.004 23.600 272.845 23.600 C 235.682 23.600,231.662 23.661,231.443 24.233 M163.786 62.600 C 163.786 73.820,163.837 78.468,163.900 72.928 C 163.962 67.388,163.962 58.208,163.900 52.528 C 163.837 46.848,163.786 51.380,163.786 62.600 M71.960 178.474 C 71.435 179.456,71.488 253.443,72.014 254.426 C 72.626 255.570,77.627 255.551,79.091 254.400 C 80.091 253.613,80.714 253.600,117.050 253.600 L 153.992 253.600 154.096 215.651 L 154.200 177.702 152.530 177.807 C 151.612 177.865,150.447 178.202,149.941 178.556 C 148.623 179.479,95.045 179.546,94.028 178.625 C 92.985 177.682,72.459 177.541,71.960 178.474 M231.579 178.180 C 231.035 178.725,231.069 253.409,231.614 254.426 C 232.197 255.516,237.438 255.574,238.224 254.500 C 238.703 253.844,241.118 253.787,276.268 253.600 L 313.800 253.400 313.894 215.581 L 313.988 177.763 311.294 177.932 C 309.812 178.025,308.245 178.349,307.811 178.651 C 306.605 179.490,253.355 179.464,252.426 178.623 C 251.663 177.933,232.238 177.520,231.579 178.180 M72.437 332.300 L 71.586 333.000 71.693 371.000 L 71.800 409.000 74.949 409.118 C 77.348 409.207,78.260 409.089,78.778 408.620 C 79.378 408.076,83.826 407.992,116.629 407.902 L 153.800 407.800 154.000 369.700 L 154.200 331.600 152.826 331.600 C 151.951 331.600,151.103 331.927,150.494 332.500 L 149.536 333.400 122.227 333.539 L 94.919 333.678 94.102 332.639 L 93.285 331.600 83.287 331.600 C 74.356 331.600,73.198 331.675,72.437 332.300 " stroke="none" fill="#d4d4d4" fill-rule="evenodd"></path><path id="path1" d="M164.864 27.723 C 164.527 28.129,164.377 37.880,164.302 64.222 L 164.200 100.168 122.400 100.047 C 75.374 99.911,78.283 99.730,78.481 102.773 L 78.600 104.600 86.100 104.709 L 93.600 104.818 93.600 141.160 C 93.600 170.179,93.703 177.588,94.111 177.926 C 94.990 178.655,149.163 178.710,150.300 177.983 L 151.200 177.408 151.200 141.111 L 151.200 104.814 161.500 104.707 L 171.800 104.600 171.908 96.100 L 172.016 87.600 201.544 87.600 L 231.072 87.600 231.536 86.581 C 232.152 85.229,232.199 43.519,231.586 42.374 C 231.182 41.619,230.427 41.600,201.595 41.600 L 172.018 41.600 171.909 34.500 L 171.800 27.400 168.562 27.285 C 166.179 27.200,165.202 27.316,164.864 27.723 M324.480 27.680 C 324.114 28.046,324.000 36.535,324.000 63.447 C 324.000 82.855,323.891 99.019,323.757 99.367 C 323.538 99.939,319.467 100.000,281.776 100.000 C 235.107 100.000,237.889 99.823,238.081 102.773 L 238.200 104.600 244.900 104.710 L 251.600 104.819 251.600 141.161 C 251.600 170.179,251.703 177.588,252.111 177.926 C 252.951 178.623,307.316 178.733,308.152 178.040 C 308.741 177.551,308.800 174.170,308.800 141.157 L 308.800 104.812 320.100 104.706 L 331.400 104.600 331.510 66.800 C 331.570 46.010,331.522 28.595,331.402 28.100 C 331.150 27.058,325.448 26.712,324.480 27.680 M164.851 181.738 C 164.531 182.124,164.375 192.476,164.302 218.238 L 164.200 254.200 121.835 254.305 C 75.912 254.419,78.400 254.277,78.400 256.769 C 78.400 259.138,78.605 259.200,86.480 259.200 L 93.600 259.200 93.600 295.532 L 93.600 331.865 94.541 332.368 C 95.912 333.102,148.986 332.831,150.300 332.084 L 151.200 331.572 151.200 295.386 L 151.200 259.200 161.120 259.200 C 168.302 259.200,171.172 259.068,171.520 258.720 C 172.216 258.024,172.216 182.376,171.520 181.680 C 170.836 180.996,165.428 181.043,164.851 181.738 M324.480 181.680 C 324.114 182.046,324.000 190.579,324.000 217.647 C 324.000 237.165,323.891 253.419,323.757 253.767 C 323.538 254.339,319.419 254.400,281.237 254.400 C 248.888 254.400,238.847 254.513,238.480 254.880 C 237.750 255.610,237.864 258.662,238.633 258.957 C 239.947 259.461,330.611 259.229,331.120 258.720 C 331.816 258.024,331.816 182.376,331.120 181.680 C 330.483 181.043,325.117 181.043,324.480 181.680 M164.864 336.123 C 164.527 336.529,164.377 346.235,164.302 372.438 L 164.200 408.200 122.200 408.295 C 75.346 408.401,78.288 408.207,78.481 411.178 L 78.600 413.000 125.200 413.000 L 171.800 413.000 171.800 374.400 L 171.800 335.800 168.562 335.685 C 166.179 335.600,165.202 335.716,164.864 336.123 " stroke="none" fill="#2c2c2c" fill-rule="evenodd"></path><path id="path2" d="M314.600 61.589 L 314.600 100.000 319.057 100.000 C 322.753 100.000,323.556 99.892,323.757 99.367 C 323.891 99.019,324.000 82.855,324.000 63.447 C 324.000 39.114,324.132 28.028,324.424 27.736 C 324.658 27.502,324.793 26.431,324.724 25.356 L 324.600 23.400 319.600 23.289 L 314.600 23.178 314.600 61.589 M154.704 216.000 L 154.600 254.423 159.400 254.312 L 164.200 254.200 164.295 218.400 C 164.361 193.643,164.524 182.345,164.824 181.773 C 165.062 181.318,165.199 180.238,165.129 179.373 L 165.000 177.800 159.904 177.688 L 154.808 177.576 154.704 216.000 M314.704 215.454 C 314.780 243.193,314.687 253.454,314.355 253.854 C 313.977 254.310,314.693 254.400,318.708 254.400 C 322.722 254.400,323.554 254.296,323.757 253.767 C 323.891 253.419,324.000 237.140,324.000 217.591 C 324.000 194.327,324.138 181.962,324.400 181.800 C 325.080 181.380,324.888 178.119,324.167 177.843 C 323.819 177.709,321.524 177.600,319.067 177.600 L 314.600 177.600 314.704 215.454 M105.128 254.300 C 110.478 254.363,119.118 254.363,124.328 254.300 C 129.537 254.236,125.160 254.185,114.600 254.185 C 104.040 254.185,99.777 254.237,105.128 254.300 M155.000 370.001 L 155.000 408.424 159.600 408.312 L 164.200 408.200 164.295 372.600 C 164.361 348.077,164.524 336.744,164.822 336.176 C 165.059 335.723,165.196 334.553,165.127 333.576 L 165.000 331.800 160.000 331.689 L 155.000 331.578 155.000 370.001 " stroke="none" fill="#946cf4" fill-rule="evenodd"></path><path id="path3" d="M154.778 23.355 C 154.680 23.453,154.690 40.603,154.800 61.467 L 155.000 99.400 159.396 99.400 L 163.792 99.400 163.796 63.942 C 163.800 30.271,163.837 28.444,164.525 27.683 C 165.046 27.107,165.215 26.391,165.125 25.141 L 165.000 23.400 159.978 23.289 C 157.216 23.227,154.876 23.257,154.778 23.355 M71.392 62.200 C 71.392 83.100,71.441 91.709,71.500 81.330 C 71.559 70.952,71.559 53.852,71.500 43.330 C 71.441 32.809,71.392 41.300,71.392 62.200 M78.500 177.899 C 81.305 177.968,85.895 177.968,88.700 177.899 C 91.505 177.830,89.210 177.774,83.600 177.774 C 77.990 177.774,75.695 177.830,78.500 177.899 M237.700 177.899 C 240.285 177.968,244.515 177.968,247.100 177.899 C 249.685 177.829,247.570 177.772,242.400 177.772 C 237.230 177.772,235.115 177.829,237.700 177.899 M309.907 177.890 C 310.626 177.979,311.706 177.977,312.307 177.886 C 312.908 177.795,312.320 177.722,311.000 177.724 C 309.680 177.726,309.188 177.801,309.907 177.890 M71.392 216.400 C 71.392 237.190,71.441 245.695,71.500 235.300 C 71.559 224.905,71.559 207.895,71.500 197.500 C 71.441 187.105,71.392 195.610,71.392 216.400 M71.392 370.600 C 71.392 391.500,71.441 400.109,71.500 389.730 C 71.559 379.352,71.559 362.252,71.500 351.730 C 71.441 341.209,71.392 349.700,71.392 370.600 " stroke="none" fill="#ebe9f3" fill-rule="evenodd"></path><path id="path4" d="M93.500 23.500 C 104.775 23.559,123.225 23.559,134.500 23.500 C 145.775 23.441,136.550 23.393,114.000 23.393 C 91.450 23.393,82.225 23.441,93.500 23.500 M273.302 23.499 L 314.004 23.604 313.902 61.465 L 313.800 99.327 276.514 99.363 C 241.108 99.398,239.193 99.436,238.514 100.123 C 237.827 100.819,237.842 100.830,238.926 100.423 C 239.688 100.137,252.065 100.000,277.218 100.000 L 314.385 100.000 314.604 99.100 C 314.725 98.605,314.773 81.370,314.712 60.800 L 314.600 23.400 273.600 23.397 L 232.600 23.394 273.302 23.499 M230.904 33.200 C 230.840 39.880,230.934 41.544,231.413 42.176 C 232.278 43.320,232.266 85.285,231.400 86.800 C 230.962 87.566,230.846 89.250,230.903 94.000 L 230.978 100.200 231.099 94.070 C 231.198 89.084,231.350 87.743,231.911 86.888 C 233.082 85.101,233.194 43.471,232.031 42.233 C 231.276 41.429,231.209 40.774,231.100 33.183 L 230.982 25.000 230.904 33.200 M164.096 64.136 L 164.000 100.072 153.700 99.736 C 132.952 99.059,79.629 99.393,78.866 100.205 C 78.240 100.871,78.248 100.892,79.000 100.557 C 79.451 100.355,98.189 100.191,122.000 100.180 L 164.200 100.159 164.304 82.049 C 164.361 72.089,164.359 55.898,164.300 46.070 C 164.240 36.241,164.148 44.371,164.096 64.136 M93.600 177.871 C 93.600 179.160,94.445 179.200,121.836 179.200 C 147.255 179.200,149.163 179.152,149.875 178.500 C 150.294 178.115,150.383 177.975,150.071 178.189 C 149.258 178.746,94.791 178.491,94.111 177.926 C 93.830 177.693,93.600 177.668,93.600 177.871 M154.300 177.833 C 154.135 177.998,154.000 195.113,154.000 215.867 L 154.000 253.600 117.044 253.600 C 82.406 253.600,80.041 253.644,79.325 254.300 C 78.906 254.685,78.823 254.820,79.143 254.600 C 79.518 254.341,92.936 254.183,117.161 254.152 L 154.600 254.104 154.704 234.822 C 154.855 206.818,154.647 177.486,154.300 177.833 M252.162 178.307 L 252.924 179.200 280.018 179.200 C 305.264 179.200,307.163 179.152,307.875 178.500 C 308.294 178.115,308.381 177.976,308.067 178.192 C 307.196 178.790,252.803 178.489,252.011 177.882 C 251.675 177.624,251.743 177.816,252.162 178.307 M313.997 177.876 C 313.995 178.054,313.950 195.120,313.897 215.800 L 313.800 253.400 276.400 253.600 C 240.489 253.792,238.000 253.877,238.000 254.904 C 238.000 255.232,238.134 255.226,238.480 254.880 C 238.846 254.514,247.813 254.400,276.400 254.400 C 304.987 254.400,313.954 254.286,314.320 253.920 C 314.945 253.295,315.024 178.185,314.400 177.800 C 314.180 177.664,313.999 177.698,313.997 177.876 M230.992 216.400 C 230.992 236.970,231.040 245.385,231.100 235.100 C 231.159 224.815,231.159 207.985,231.100 197.700 C 231.040 187.415,230.992 195.830,230.992 216.400 M150.200 332.112 C 149.113 332.775,95.327 333.087,94.674 332.434 C 93.867 331.627,93.470 331.993,94.235 332.839 C 94.994 333.677,94.997 333.677,122.286 333.539 L 149.578 333.400 150.478 332.500 C 151.480 331.498,151.397 331.382,150.200 332.112 M153.902 369.900 L 153.800 407.800 116.629 407.902 C 84.927 407.989,79.365 408.089,78.821 408.581 C 78.451 408.916,77.101 409.217,75.592 409.301 L 73.000 409.446 75.624 409.523 C 77.412 409.575,78.494 409.413,79.024 409.013 C 79.693 408.506,84.955 408.424,117.257 408.413 C 151.037 408.401,154.738 408.338,154.957 407.767 C 155.275 406.940,155.275 333.460,154.957 332.633 C 154.132 330.481,153.995 335.300,153.902 369.900 " stroke="none" fill="#b4b8d8" fill-rule="evenodd"></path><path id="path5" d="M93.500 23.500 C 104.775 23.559,123.225 23.559,134.500 23.500 C 145.775 23.441,136.550 23.393,114.000 23.393 C 91.450 23.393,82.225 23.441,93.500 23.500 M273.302 23.499 L 314.004 23.604 313.902 61.465 L 313.800 99.327 276.514 99.363 C 241.108 99.398,239.193 99.436,238.514 100.123 C 237.827 100.819,237.842 100.830,238.926 100.423 C 239.688 100.137,252.065 100.000,277.218 100.000 L 314.385 100.000 314.604 99.100 C 314.725 98.605,314.773 81.370,314.712 60.800 L 314.600 23.400 273.600 23.397 L 232.600 23.394 273.302 23.499 M230.904 33.200 C 230.840 39.880,230.934 41.544,231.413 42.176 C 232.278 43.320,232.266 85.285,231.400 86.800 C 230.962 87.566,230.846 89.250,230.903 94.000 L 230.978 100.200 231.099 94.070 C 231.198 89.084,231.350 87.743,231.911 86.888 C 233.082 85.101,233.194 43.471,232.031 42.233 C 231.276 41.429,231.209 40.774,231.100 33.183 L 230.982 25.000 230.904 33.200 M164.096 64.136 L 164.000 100.072 153.700 99.736 C 132.952 99.059,79.629 99.393,78.866 100.205 C 78.240 100.871,78.248 100.892,79.000 100.557 C 79.451 100.355,98.189 100.191,122.000 100.180 L 164.200 100.159 164.304 82.049 C 164.361 72.089,164.359 55.898,164.300 46.070 C 164.240 36.241,164.148 44.371,164.096 64.136 M93.600 177.871 C 93.600 179.160,94.445 179.200,121.836 179.200 C 147.255 179.200,149.163 179.152,149.875 178.500 C 150.294 178.115,150.383 177.975,150.071 178.189 C 149.258 178.746,94.791 178.491,94.111 177.926 C 93.830 177.693,93.600 177.668,93.600 177.871 M154.300 177.833 C 154.135 177.998,154.000 195.113,154.000 215.867 L 154.000 253.600 117.044 253.600 C 82.406 253.600,80.041 253.644,79.325 254.300 C 78.906 254.685,78.823 254.820,79.143 254.600 C 79.518 254.341,92.936 254.183,117.161 254.152 L 154.600 254.104 154.704 234.822 C 154.855 206.818,154.647 177.486,154.300 177.833 M252.162 178.307 L 252.924 179.200 280.018 179.200 C 305.264 179.200,307.163 179.152,307.875 178.500 C 308.294 178.115,308.381 177.976,308.067 178.192 C 307.196 178.790,252.803 178.489,252.011 177.882 C 251.675 177.624,251.743 177.816,252.162 178.307 M313.997 177.876 C 313.995 178.054,313.950 195.120,313.897 215.800 L 313.800 253.400 276.400 253.600 C 240.489 253.792,238.000 253.877,238.000 254.904 C 238.000 255.232,238.134 255.226,238.480 254.880 C 238.846 254.514,247.813 254.400,276.400 254.400 C 304.987 254.400,313.954 254.286,314.320 253.920 C 314.945 253.295,315.024 178.185,314.400 177.800 C 314.180 177.664,313.999 177.698,313.997 177.876 M230.992 216.400 C 230.992 236.970,231.040 245.385,231.100 235.100 C 231.159 224.815,231.159 207.985,231.100 197.700 C 231.040 187.415,230.992 195.830,230.992 216.400 M150.200 332.112 C 149.113 332.775,95.327 333.087,94.674 332.434 C 93.867 331.627,93.470 331.993,94.235 332.839 C 94.994 333.677,94.997 333.677,122.286 333.539 L 149.578 333.400 150.478 332.500 C 151.480 331.498,151.397 331.382,150.200 332.112 M153.902 369.900 L 153.800 407.800 116.629 407.902 C 84.927 407.989,79.365 408.089,78.821 408.581 C 78.451 408.916,77.101 409.217,75.592 409.301 L 73.000 409.446 75.624 409.523 C 77.412 409.575,78.494 409.413,79.024 409.013 C 79.693 408.506,84.955 408.424,117.257 408.413 C 151.037 408.401,154.738 408.338,154.957 407.767 C 155.275 406.940,155.275 333.460,154.957 332.633 C 154.132 330.481,153.995 335.300,153.902 369.900 " stroke="none" fill="#b4b8d8" fill-rule="evenodd"></path></g></svg>